<svg width="519" height="84" viewBox="0 0 519 84" fill="none" xmlns="http://www.w3.org/2000/svg">
<path d="M0.487001 82V8.48136H50.136V22.3788H17.0367V36.8067H46.4229V50.3859H17.0367V68.1025H52.576V82H0.487001ZM58.9885 43.172H89.7538V57.4938H58.9885V43.172ZM122.943 7.63266C133.905 7.63266 142.321 9.5776 148.191 13.4675C154.062 17.2866 156.997 23.5811 156.997 32.351C156.997 41.1917 154.026 47.5923 148.085 51.5529C142.144 55.4428 133.657 57.3877 122.624 57.3877H117.426V82H100.876V9.54223C104.483 8.83498 108.303 8.33991 112.334 8.05701C116.365 7.77411 119.901 7.63266 122.943 7.63266ZM124.004 21.7423C122.801 21.7423 121.599 21.7777 120.397 21.8484C119.265 21.9191 118.275 21.9898 117.426 22.0606V43.2781H122.624C128.353 43.2781 132.667 42.5001 135.567 40.9441C138.467 39.3882 139.917 36.4885 139.917 32.245C139.917 30.1939 139.528 28.4965 138.75 27.1528C138.042 25.809 136.982 24.7481 135.567 23.9701C134.223 23.1214 132.561 22.5556 130.581 22.2727C128.601 21.9191 126.408 21.7423 124.004 21.7423ZM201.718 40.2015C200.304 39.8479 198.642 39.4943 196.732 39.1406C194.823 38.7163 192.772 38.5041 190.579 38.5041C189.589 38.5041 188.387 38.6102 186.972 38.8224C185.628 38.9638 184.603 39.1406 183.896 39.3528V82H168.089V29.1684C170.918 28.1783 174.242 27.2588 178.061 26.4101C181.951 25.4907 186.265 25.031 191.004 25.031C191.852 25.031 192.878 25.1017 194.08 25.2432C195.282 25.3139 196.485 25.4554 197.687 25.6675C198.889 25.809 200.092 26.0212 201.294 26.3041C202.496 26.5162 203.522 26.7991 204.371 27.1528L201.718 40.2015ZM209.156 54.5233C209.156 49.5726 209.899 45.2584 211.384 41.5807C212.94 37.8322 214.956 34.7203 217.431 32.245C219.906 29.7696 222.735 27.8954 225.918 26.6223C229.171 25.3493 232.495 24.7127 235.89 24.7127C243.811 24.7127 250.071 27.1528 254.668 32.0328C259.265 36.8421 261.563 43.9499 261.563 53.3564C261.563 54.2758 261.528 55.3013 261.457 56.4329C261.387 57.4938 261.316 58.4486 261.245 59.2973H225.388C225.741 62.5506 227.262 65.1321 229.949 67.0417C232.637 68.9512 236.244 69.906 240.77 69.906C243.67 69.906 246.499 69.6585 249.257 69.1634C252.086 68.5976 254.385 67.9257 256.153 67.1477L258.275 79.9843C257.426 80.4087 256.294 80.833 254.88 81.2574C253.465 81.6817 251.874 82.0354 250.106 82.3183C248.409 82.6719 246.57 82.9548 244.589 83.167C242.609 83.3791 240.629 83.4852 238.648 83.4852C233.627 83.4852 229.242 82.7426 225.494 81.2574C221.816 79.7722 218.739 77.7565 216.264 75.2104C213.859 72.5936 212.056 69.517 210.854 65.9808C209.722 62.4445 209.156 58.6254 209.156 54.5233ZM246.287 48.4763C246.216 47.1326 245.969 45.8242 245.544 44.5511C245.191 43.2781 244.589 42.1465 243.741 41.1563C242.963 40.1662 241.937 39.3528 240.664 38.7163C239.462 38.0798 237.941 37.7615 236.102 37.7615C234.334 37.7615 232.814 38.0798 231.541 38.7163C230.268 39.2821 229.207 40.0601 228.358 41.0502C227.509 42.0404 226.837 43.2073 226.342 44.5511C225.918 45.8242 225.6 47.1326 225.388 48.4763H246.287ZM289.781 70.6486C292.681 70.6486 294.732 70.3657 295.934 69.7999C297.136 69.2341 297.738 68.1379 297.738 66.5112C297.738 65.2382 296.96 64.1419 295.404 63.2225C293.848 62.2324 291.478 61.1361 288.296 59.9338C285.82 59.0144 283.557 58.0596 281.506 57.0694C279.526 56.0793 277.828 54.9123 276.414 53.5685C274.999 52.154 273.903 50.492 273.125 48.5824C272.347 46.6729 271.958 44.3743 271.958 41.6867C271.958 36.4531 273.903 32.3157 277.793 29.2745C281.683 26.2333 287.023 24.7127 293.812 24.7127C297.207 24.7127 300.46 25.031 303.572 25.6675C306.684 26.2333 309.16 26.8699 310.998 27.5771L308.24 39.8833C306.401 39.2467 304.386 38.6809 302.193 38.1859C300.071 37.6908 297.667 37.4432 294.979 37.4432C290.029 37.4432 287.553 38.8224 287.553 41.5807C287.553 42.2172 287.659 42.783 287.871 43.2781C288.084 43.7731 288.508 44.2682 289.144 44.7633C289.781 45.1876 290.63 45.6827 291.691 46.2485C292.822 46.7436 294.237 47.3094 295.934 47.9459C299.4 49.219 302.264 50.492 304.527 51.7651C306.79 52.9674 308.558 54.3112 309.832 55.7964C311.175 57.2109 312.095 58.8022 312.59 60.5703C313.156 62.3384 313.438 64.3895 313.438 66.7234C313.438 72.2399 311.352 76.4127 307.179 79.2417C303.077 82.0707 297.242 83.4852 289.675 83.4852C284.724 83.4852 280.587 83.0609 277.263 82.2122C274.009 81.3635 271.746 80.6562 270.473 80.0904L273.125 67.2538C275.813 68.3147 278.571 69.1634 281.4 69.7999C284.229 70.3657 287.023 70.6486 289.781 70.6486ZM322.599 54.5233C322.599 49.5726 323.342 45.2584 324.827 41.5807C326.383 37.8322 328.399 34.7203 330.874 32.245C333.35 29.7696 336.179 27.8954 339.361 26.6223C342.614 25.3493 345.939 24.7127 349.333 24.7127C357.255 24.7127 363.514 27.1528 368.111 32.0328C372.708 36.8421 375.007 43.9499 375.007 53.3564C375.007 54.2758 374.971 55.3013 374.9 56.4329C374.83 57.4938 374.759 58.4486 374.688 59.2973H338.831C339.184 62.5506 340.705 65.1321 343.392 67.0417C346.08 68.9512 349.687 69.906 354.213 69.906C357.113 69.906 359.942 69.6585 362.7 69.1634C365.529 68.5976 367.828 67.9257 369.596 67.1477L371.718 79.9843C370.869 80.4087 369.738 80.833 368.323 81.2574C366.909 81.6817 365.317 82.0354 363.549 82.3183C361.852 82.6719 360.013 82.9548 358.033 83.167C356.052 83.3791 354.072 83.4852 352.092 83.4852C347.07 83.4852 342.685 82.7426 338.937 81.2574C335.259 79.7722 332.183 77.7565 329.707 75.2104C327.303 72.5936 325.499 69.517 324.297 65.9808C323.165 62.4445 322.599 58.6254 322.599 54.5233ZM359.73 48.4763C359.659 47.1326 359.412 45.8242 358.987 44.5511C358.634 43.2781 358.033 42.1465 357.184 41.1563C356.406 40.1662 355.38 39.3528 354.107 38.7163C352.905 38.0798 351.384 37.7615 349.546 37.7615C347.777 37.7615 346.257 38.0798 344.984 38.7163C343.711 39.2821 342.65 40.0601 341.801 41.0502C340.952 42.0404 340.281 43.2073 339.785 44.5511C339.361 45.8242 339.043 47.1326 338.831 48.4763H359.73ZM387.205 28.1075C389.892 27.3296 393.358 26.6223 397.602 25.9858C401.845 25.2785 406.301 24.9249 410.969 24.9249C415.707 24.9249 419.632 25.5614 422.744 26.8345C425.927 28.0368 428.438 29.7696 430.276 32.0328C432.115 34.296 433.424 36.9835 434.202 40.0954C434.98 43.2073 435.369 46.6729 435.369 50.492V82H419.562V52.4016C419.562 47.3094 418.89 43.7024 417.546 41.5807C416.202 39.4589 413.691 38.398 410.014 38.398C408.882 38.398 407.68 38.4688 406.407 38.6102C405.134 38.6809 404.002 38.787 403.012 38.9285V82H387.205V28.1075ZM465.696 70.6486C468.595 70.6486 470.646 70.3657 471.849 69.7999C473.051 69.2341 473.652 68.1379 473.652 66.5112C473.652 65.2382 472.874 64.1419 471.318 63.2225C469.762 62.2324 467.393 61.1361 464.21 59.9338C461.735 59.0144 459.472 58.0596 457.421 57.0694C455.44 56.0793 453.743 54.9123 452.329 53.5685C450.914 52.154 449.818 50.492 449.04 48.5824C448.262 46.6729 447.873 44.3743 447.873 41.6867C447.873 36.4531 449.818 32.3157 453.708 29.2745C457.598 26.2333 462.937 24.7127 469.727 24.7127C473.122 24.7127 476.375 25.031 479.487 25.6675C482.599 26.2333 485.074 26.8699 486.913 27.5771L484.155 39.8833C482.316 39.2467 480.3 38.6809 478.108 38.1859C475.986 37.6908 473.581 37.4432 470.894 37.4432C465.943 37.4432 463.468 38.8224 463.468 41.5807C463.468 42.2172 463.574 42.783 463.786 43.2781C463.998 43.7731 464.423 44.2682 465.059 44.7633C465.696 45.1876 466.544 45.6827 467.605 46.2485C468.737 46.7436 470.151 47.3094 471.849 47.9459C475.314 49.219 478.179 50.492 480.442 51.7651C482.705 52.9674 484.473 54.3112 485.746 55.7964C487.09 57.2109 488.009 58.8022 488.504 60.5703C489.07 62.3384 489.353 64.3895 489.353 66.7234C489.353 72.2399 487.267 76.4127 483.094 79.2417C478.992 82.0707 473.157 83.4852 465.59 83.4852C460.639 83.4852 456.501 83.0609 453.177 82.2122C449.924 81.3635 447.661 80.6562 446.388 80.0904L449.04 67.2538C451.727 68.3147 454.486 69.1634 457.315 69.7999C460.144 70.3657 462.937 70.6486 465.696 70.6486ZM516.973 82H501.166V26.198H516.973V82ZM518.458 10.0727C518.458 12.9724 517.504 15.271 515.594 16.9684C513.755 18.595 511.563 19.4084 509.017 19.4084C506.47 19.4084 504.243 18.595 502.333 16.9684C500.494 15.271 499.575 12.9724 499.575 10.0727C499.575 7.17294 500.494 4.90974 502.333 3.28307C504.243 1.58567 506.47 0.73697 509.017 0.73697C511.563 0.73697 513.755 1.58567 515.594 3.28307C517.504 4.90974 518.458 7.17294 518.458 10.0727Z" fill="url(#paint0_linear_395_53)"/>
<defs>
<linearGradient id="paint0_linear_395_53" x1="-8" y1="43" x2="525" y2="43" gradientUnits="userSpaceOnUse">
<stop stop-color="#DA8CFF"/>
<stop offset="1" stop-color="#9A55FF"/>
</linearGradient>
</defs>
</svg>
