<svg width="393" height="60" viewBox="0 0 393 60" fill="none" xmlns="http://www.w3.org/2000/svg">
<path d="M11.0339 15.6674V28.6679H28.4917V36.9139H11.0339V50.6573H30.7203V59.1262H0.633486V7.19852H30.7203V15.6674H11.0339ZM71.8187 28.2222V36.9882H40.3204V28.2222H71.8187ZM121.295 23.3191C121.295 26.0926 120.627 28.6927 119.29 31.1194C118.002 33.5462 115.947 35.5025 113.124 36.9882C110.35 38.474 106.834 39.2169 102.575 39.2169H93.883V59.1262H83.4826V7.27282H102.575C106.586 7.27282 110.004 7.96618 112.827 9.3529C115.65 10.7396 117.754 12.6464 119.141 15.0731C120.577 17.4999 121.295 20.2485 121.295 23.3191ZM102.129 30.8223C105.002 30.8223 107.131 30.1785 108.518 28.8908C109.905 27.5536 110.598 25.6964 110.598 23.3191C110.598 18.2675 107.775 15.7417 102.129 15.7417H93.883V30.8223H102.129ZM139.08 24.3592C140.417 22.18 142.151 20.4714 144.28 19.2333C146.459 17.9951 148.936 17.3761 151.709 17.3761V28.2965H148.96C145.692 28.2965 143.215 29.0641 141.532 30.5994C139.897 32.1347 139.08 34.8091 139.08 38.6226V59.1262H128.68V17.9704H139.08V24.3592ZM196.973 37.6568C196.973 39.1426 196.874 40.4798 196.676 41.6684H166.589C166.836 44.64 167.877 46.9677 169.709 48.6515C171.541 50.3354 173.795 51.1773 176.469 51.1773C180.332 51.1773 183.081 49.5182 184.715 46.2H195.933C194.744 50.1621 192.466 53.4308 189.098 56.0061C185.731 58.5319 181.595 59.7948 176.692 59.7948C172.73 59.7948 169.164 58.9281 165.995 57.1947C162.874 55.4118 160.423 52.9107 158.64 49.6916C156.907 46.4724 156.04 42.758 156.04 38.5483C156.04 34.2891 156.907 30.5499 158.64 27.3307C160.373 24.1116 162.8 21.6353 165.92 19.9019C169.04 18.1685 172.631 17.3018 176.692 17.3018C180.605 17.3018 184.096 18.1437 187.167 19.8276C190.287 21.5115 192.689 23.9134 194.373 27.0336C196.106 30.1042 196.973 33.6452 196.973 37.6568ZM186.201 34.6853C186.152 32.0109 185.186 29.8813 183.304 28.2965C181.422 26.6621 179.119 25.845 176.395 25.845C173.82 25.845 171.64 26.6374 169.858 28.2222C168.124 29.7575 167.059 31.9118 166.663 34.6853H186.201ZM220.313 59.7948C216.946 59.7948 213.925 59.2005 211.25 58.0119C208.576 56.7737 206.446 55.1146 204.861 53.0346C203.326 50.9545 202.484 48.6515 202.336 46.1257H212.81C213.008 47.7105 213.776 49.023 215.113 50.063C216.5 51.1031 218.209 51.6231 220.239 51.6231C222.22 51.6231 223.755 51.2269 224.845 50.4345C225.984 49.642 226.554 48.6268 226.554 47.3886C226.554 46.0514 225.86 45.0609 224.474 44.4171C223.136 43.7237 220.982 42.9808 218.01 42.1884C214.94 41.4455 212.414 40.6779 210.433 39.8855C208.502 39.0931 206.818 37.8797 205.381 36.2453C203.995 34.611 203.301 32.4071 203.301 29.6337C203.301 27.3555 203.945 25.2754 205.233 23.3934C206.57 21.5115 208.452 20.0257 210.879 18.9361C213.355 17.8466 216.252 17.3018 219.571 17.3018C224.474 17.3018 228.386 18.5399 231.308 21.0162C234.23 23.443 235.84 26.7364 236.137 30.8966H226.182C226.034 29.2622 225.34 27.9746 224.102 27.0336C222.914 26.0431 221.304 25.5478 219.273 25.5478C217.391 25.5478 215.93 25.8945 214.89 26.5878C213.9 27.2812 213.405 28.2469 213.405 29.4851C213.405 30.8718 214.098 31.9366 215.485 32.6795C216.871 33.3729 219.026 34.091 221.948 34.8339C224.919 35.5768 227.371 36.3444 229.302 37.1368C231.234 37.9292 232.893 39.1674 234.28 40.8512C235.716 42.4856 236.459 44.6647 236.508 47.3886C236.508 49.7659 235.84 51.8955 234.503 53.7774C233.215 55.6594 231.333 57.1452 228.857 58.2348C226.43 59.2748 223.582 59.7948 220.313 59.7948ZM283.304 37.6568C283.304 39.1426 283.205 40.4798 283.007 41.6684H252.92C253.168 44.64 254.208 46.9677 256.04 48.6515C257.873 50.3354 260.126 51.1773 262.801 51.1773C266.664 51.1773 269.412 49.5182 271.047 46.2H282.264C281.076 50.1621 278.797 53.4308 275.43 56.0061C272.062 58.5319 267.927 59.7948 263.024 59.7948C259.061 59.7948 255.496 58.9281 252.326 57.1947C249.206 55.4118 246.754 52.9107 244.971 49.6916C243.238 46.4724 242.371 42.758 242.371 38.5483C242.371 34.2891 243.238 30.5499 244.971 27.3307C246.705 24.1116 249.132 21.6353 252.252 19.9019C255.372 18.1685 258.962 17.3018 263.024 17.3018C266.936 17.3018 270.428 18.1437 273.498 19.8276C276.618 21.5115 279.02 23.9134 280.704 27.0336C282.438 30.1042 283.304 33.6452 283.304 37.6568ZM272.532 34.6853C272.483 32.0109 271.517 29.8813 269.635 28.2965C267.753 26.6621 265.45 25.845 262.726 25.845C260.151 25.845 257.972 26.6374 256.189 28.2222C254.456 29.7575 253.391 31.9118 252.995 34.6853H272.532ZM313.702 17.3761C318.605 17.3761 322.567 18.9361 325.588 22.0562C328.609 25.1268 330.12 29.4356 330.12 34.9824V59.1262H319.72V36.3939C319.72 33.1252 318.902 30.6242 317.268 28.8908C315.634 27.1079 313.405 26.2164 310.582 26.2164C307.71 26.2164 305.431 27.1079 303.748 28.8908C302.113 30.6242 301.296 33.1252 301.296 36.3939V59.1262H290.896V17.9704H301.296V23.0963C302.683 21.3134 304.441 19.9266 306.571 18.9361C308.75 17.8961 311.127 17.3761 313.702 17.3761ZM355.759 59.7948C352.392 59.7948 349.371 59.2005 346.696 58.0119C344.022 56.7737 341.892 55.1146 340.307 53.0346C338.772 50.9545 337.93 48.6515 337.782 46.1257H348.256C348.454 47.7105 349.222 49.023 350.559 50.063C351.946 51.1031 353.655 51.6231 355.685 51.6231C357.666 51.6231 359.201 51.2269 360.291 50.4345C361.43 49.642 362 48.6268 362 47.3886C362 46.0514 361.306 45.0609 359.92 44.4171C358.582 43.7237 356.428 42.9808 353.456 42.1884C350.386 41.4455 347.86 40.6779 345.879 39.8855C343.948 39.0931 342.264 37.8797 340.827 36.2453C339.441 34.611 338.747 32.4071 338.747 29.6337C338.747 27.3555 339.391 25.2754 340.679 23.3934C342.016 21.5115 343.898 20.0257 346.325 18.9361C348.801 17.8466 351.698 17.3018 355.017 17.3018C359.92 17.3018 363.832 18.5399 366.754 21.0162C369.676 23.443 371.286 26.7364 371.583 30.8966H361.628C361.48 29.2622 360.786 27.9746 359.548 27.0336C358.36 26.0431 356.75 25.5478 354.719 25.5478C352.837 25.5478 351.376 25.8945 350.336 26.5878C349.346 27.2812 348.851 28.2469 348.851 29.4851C348.851 30.8718 349.544 31.9366 350.931 32.6795C352.317 33.3729 354.472 34.091 357.394 34.8339C360.365 35.5768 362.817 36.3444 364.748 37.1368C366.68 37.9292 368.339 39.1674 369.726 40.8512C371.162 42.4856 371.905 44.6647 371.954 47.3886C371.954 49.7659 371.286 51.8955 369.949 53.7774C368.661 55.6594 366.779 57.1452 364.303 58.2348C361.876 59.2748 359.028 59.7948 355.759 59.7948ZM385.766 13.0673C383.934 13.0673 382.398 12.4978 381.16 11.3587C379.972 10.1701 379.377 8.70906 379.377 6.97566C379.377 5.24226 379.972 3.80601 381.16 2.66692C382.398 1.47831 383.934 0.884 385.766 0.884C387.599 0.884 389.109 1.47831 390.298 2.66692C391.536 3.80601 392.155 5.24226 392.155 6.97566C392.155 8.70906 391.536 10.1701 390.298 11.3587C389.109 12.4978 387.599 13.0673 385.766 13.0673ZM390.892 17.9704V59.1262H380.492V17.9704H390.892Z" fill="url(#paint0_linear_397_63)"/>
<defs>
<linearGradient id="paint0_linear_397_63" x1="172.904" y1="17.7307" x2="201.521" y2="58.3031" gradientUnits="userSpaceOnUse">
<stop stop-color="#DA8CFF"/>
<stop offset="1" stop-color="#9A55FF"/>
</linearGradient>
</defs>
</svg>
