<svg width="419" height="84" viewBox="0 0 419 84" fill="none" xmlns="http://www.w3.org/2000/svg">
<path d="M22.5532 7.63266C33.5156 7.63266 41.9319 9.5776 47.802 13.4675C53.6722 17.2866 56.6073 23.5811 56.6073 32.351C56.6073 41.1917 53.6368 47.5923 47.6959 51.5529C41.755 55.4428 33.268 57.3877 22.2349 57.3877H17.0367V82H0.487001V9.54223C4.09398 8.83498 7.91313 8.33991 11.9445 8.05701C15.9758 7.77411 19.512 7.63266 22.5532 7.63266ZM23.6141 21.7423C22.4118 21.7423 21.2094 21.7777 20.0071 21.8484C18.8755 21.9191 17.8854 21.9898 17.0367 22.0606V43.2781H22.2349C27.9637 43.2781 32.2779 42.5001 35.1776 40.9441C38.0773 39.3882 39.5272 36.4885 39.5272 32.245C39.5272 30.1939 39.1382 28.4965 38.3602 27.1528C37.653 25.809 36.5921 24.7481 35.1776 23.9701C33.8338 23.1214 32.1718 22.5556 30.1915 22.2727C28.2112 21.9191 26.0187 21.7423 23.6141 21.7423ZM101.329 40.2015C99.9145 39.8479 98.2524 39.4943 96.3429 39.1406C94.4333 38.7163 92.3823 38.5041 90.1898 38.5041C89.1996 38.5041 87.9973 38.6102 86.5828 38.8224C85.239 38.9638 84.2135 39.1406 83.5063 39.3528V82H67.6992V29.1684C70.5282 28.1783 73.8523 27.2588 77.6715 26.4101C81.5613 25.4907 85.8756 25.031 90.6141 25.031C91.4628 25.031 92.4883 25.1017 93.6907 25.2432C94.893 25.3139 96.0953 25.4554 97.2976 25.6675C98.5 25.809 99.7023 26.0212 100.905 26.3041C102.107 26.5162 103.132 26.7991 103.981 27.1528L101.329 40.2015ZM108.767 54.5233C108.767 49.5726 109.509 45.2584 110.995 41.5807C112.55 37.8322 114.566 34.7203 117.042 32.245C119.517 29.7696 122.346 27.8954 125.529 26.6223C128.782 25.3493 132.106 24.7127 135.501 24.7127C143.422 24.7127 149.681 27.1528 154.278 32.0328C158.875 36.8421 161.174 43.9499 161.174 53.3564C161.174 54.2758 161.139 55.3013 161.068 56.4329C160.997 57.4938 160.926 58.4486 160.856 59.2973H124.998C125.352 62.5506 126.872 65.1321 129.56 67.0417C132.247 68.9512 135.854 69.906 140.381 69.906C143.281 69.906 146.11 69.6585 148.868 69.1634C151.697 68.5976 153.995 67.9257 155.763 67.1477L157.885 79.9843C157.037 80.4087 155.905 80.833 154.49 81.2574C153.076 81.6817 151.485 82.0354 149.716 82.3183C148.019 82.6719 146.18 82.9548 144.2 83.167C142.22 83.3791 140.239 83.4852 138.259 83.4852C133.238 83.4852 128.853 82.7426 125.104 81.2574C121.426 79.7722 118.35 77.7565 115.875 75.2104C113.47 72.5936 111.666 69.517 110.464 65.9808C109.333 62.4445 108.767 58.6254 108.767 54.5233ZM145.897 48.4763C145.827 47.1326 145.579 45.8242 145.155 44.5511C144.801 43.2781 144.2 42.1465 143.351 41.1563C142.573 40.1662 141.548 39.3528 140.275 38.7163C139.072 38.0798 137.552 37.7615 135.713 37.7615C133.945 37.7615 132.424 38.0798 131.151 38.7163C129.878 39.2821 128.817 40.0601 127.969 41.0502C127.12 42.0404 126.448 43.2073 125.953 44.5511C125.529 45.8242 125.21 47.1326 124.998 48.4763H145.897ZM189.392 70.6486C192.291 70.6486 194.342 70.3657 195.545 69.7999C196.747 69.2341 197.348 68.1379 197.348 66.5112C197.348 65.2382 196.57 64.1419 195.014 63.2225C193.458 62.2324 191.089 61.1361 187.906 59.9338C185.431 59.0144 183.168 58.0596 181.117 57.0694C179.136 56.0793 177.439 54.9123 176.025 53.5685C174.61 52.154 173.514 50.492 172.736 48.5824C171.958 46.6729 171.569 44.3743 171.569 41.6867C171.569 36.4531 173.514 32.3157 177.404 29.2745C181.294 26.2333 186.633 24.7127 193.423 24.7127C196.818 24.7127 200.071 25.031 203.183 25.6675C206.295 26.2333 208.77 26.8699 210.609 27.5771L207.851 39.8833C206.012 39.2467 203.996 38.6809 201.804 38.1859C199.682 37.6908 197.277 37.4432 194.59 37.4432C189.639 37.4432 187.164 38.8224 187.164 41.5807C187.164 42.2172 187.27 42.783 187.482 43.2781C187.694 43.7731 188.118 44.2682 188.755 44.7633C189.392 45.1876 190.24 45.6827 191.301 46.2485C192.433 46.7436 193.847 47.3094 195.545 47.9459C199.01 49.219 201.874 50.492 204.138 51.7651C206.401 52.9674 208.169 54.3112 209.442 55.7964C210.786 57.2109 211.705 58.8022 212.2 60.5703C212.766 62.3384 213.049 64.3895 213.049 66.7234C213.049 72.2399 210.963 76.4127 206.79 79.2417C202.688 82.0707 196.853 83.4852 189.285 83.4852C184.335 83.4852 180.197 83.0609 176.873 82.2122C173.62 81.3635 171.357 80.6562 170.084 80.0904L172.736 67.2538C175.423 68.3147 178.182 69.1634 181.011 69.7999C183.84 70.3657 186.633 70.6486 189.392 70.6486ZM222.21 54.5233C222.21 49.5726 222.952 45.2584 224.438 41.5807C225.994 37.8322 228.009 34.7203 230.485 32.245C232.96 29.7696 235.789 27.8954 238.972 26.6223C242.225 25.3493 245.549 24.7127 248.944 24.7127C256.865 24.7127 263.124 27.1528 267.721 32.0328C272.319 36.8421 274.617 43.9499 274.617 53.3564C274.617 54.2758 274.582 55.3013 274.511 56.4329C274.44 57.4938 274.37 58.4486 274.299 59.2973H238.441C238.795 62.5506 240.315 65.1321 243.003 67.0417C245.691 68.9512 249.298 69.906 253.824 69.906C256.724 69.906 259.553 69.6585 262.311 69.1634C265.14 68.5976 267.439 67.9257 269.207 67.1477L271.328 79.9843C270.48 80.4087 269.348 80.833 267.934 81.2574C266.519 81.6817 264.928 82.0354 263.16 82.3183C261.462 82.6719 259.623 82.9548 257.643 83.167C255.663 83.3791 253.683 83.4852 251.702 83.4852C246.681 83.4852 242.296 82.7426 238.547 81.2574C234.87 79.7722 231.793 77.7565 229.318 75.2104C226.913 72.5936 225.11 69.517 223.907 65.9808C222.776 62.4445 222.21 58.6254 222.21 54.5233ZM259.341 48.4763C259.27 47.1326 259.022 45.8242 258.598 44.5511C258.244 43.2781 257.643 42.1465 256.794 41.1563C256.016 40.1662 254.991 39.3528 253.718 38.7163C252.516 38.0798 250.995 37.7615 249.156 37.7615C247.388 37.7615 245.867 38.0798 244.594 38.7163C243.321 39.2821 242.26 40.0601 241.412 41.0502C240.563 42.0404 239.891 43.2073 239.396 44.5511C238.972 45.8242 238.653 47.1326 238.441 48.4763H259.341ZM286.815 28.1075C289.503 27.3296 292.969 26.6223 297.212 25.9858C301.456 25.2785 305.911 24.9249 310.579 24.9249C315.318 24.9249 319.243 25.5614 322.355 26.8345C325.537 28.0368 328.048 29.7696 329.887 32.0328C331.726 34.296 333.034 36.9835 333.812 40.0954C334.59 43.2073 334.979 46.6729 334.979 50.492V82H319.172V52.4016C319.172 47.3094 318.5 43.7024 317.157 41.5807C315.813 39.4589 313.302 38.398 309.624 38.398C308.493 38.398 307.29 38.4688 306.017 38.6102C304.744 38.6809 303.613 38.787 302.623 38.9285V82H286.815V28.1075ZM365.306 70.6486C368.206 70.6486 370.257 70.3657 371.459 69.7999C372.662 69.2341 373.263 68.1379 373.263 66.5112C373.263 65.2382 372.485 64.1419 370.929 63.2225C369.373 62.2324 367.004 61.1361 363.821 59.9338C361.346 59.0144 359.082 58.0596 357.031 57.0694C355.051 56.0793 353.354 54.9123 351.939 53.5685C350.525 52.154 349.428 50.492 348.65 48.5824C347.872 46.6729 347.483 44.3743 347.483 41.6867C347.483 36.4531 349.428 32.3157 353.318 29.2745C357.208 26.2333 362.548 24.7127 369.338 24.7127C372.732 24.7127 375.986 25.031 379.098 25.6675C382.209 26.2333 384.685 26.8699 386.524 27.5771L383.765 39.8833C381.927 39.2467 379.911 38.6809 377.718 38.1859C375.597 37.6908 373.192 37.4432 370.504 37.4432C365.554 37.4432 363.078 38.8224 363.078 41.5807C363.078 42.2172 363.184 42.783 363.397 43.2781C363.609 43.7731 364.033 44.2682 364.67 44.7633C365.306 45.1876 366.155 45.6827 367.216 46.2485C368.347 46.7436 369.762 47.3094 371.459 47.9459C374.925 49.219 377.789 50.492 380.052 51.7651C382.316 52.9674 384.084 54.3112 385.357 55.7964C386.7 57.2109 387.62 58.8022 388.115 60.5703C388.681 62.3384 388.964 64.3895 388.964 66.7234C388.964 72.2399 386.877 76.4127 382.705 79.2417C378.602 82.0707 372.768 83.4852 365.2 83.4852C360.249 83.4852 356.112 83.0609 352.788 82.2122C349.535 81.3635 347.271 80.6562 345.998 80.0904L348.65 67.2538C351.338 68.3147 354.096 69.1634 356.925 69.7999C359.754 70.3657 362.548 70.6486 365.306 70.6486ZM416.584 82H400.777V26.198H416.584V82ZM418.069 10.0727C418.069 12.9724 417.114 15.271 415.205 16.9684C413.366 18.595 411.173 19.4084 408.627 19.4084C406.081 19.4084 403.853 18.595 401.944 16.9684C400.105 15.271 399.185 12.9724 399.185 10.0727C399.185 7.17294 400.105 4.90974 401.944 3.28307C403.853 1.58567 406.081 0.73697 408.627 0.73697C411.173 0.73697 413.366 1.58567 415.205 3.28307C417.114 4.90974 418.069 7.17294 418.069 10.0727Z" fill="url(#paint0_linear_395_53)"/>
<defs>
<linearGradient id="paint0_linear_395_53" x1="-8" y1="43" x2="425" y2="43" gradientUnits="userSpaceOnUse">
<stop stop-color="#DA8CFF"/>
<stop offset="1" stop-color="#9A55FF"/>
</linearGradient>
</defs>
</svg>
