<svg width="154" height="43" viewBox="0 0 154 43" fill="none" xmlns="http://www.w3.org/2000/svg">
<path d="M45.7793 13.7928V17.4153H50.6439V19.713H45.7793V23.5425H51.2649V25.9023H42.8813V11.433H51.2649V13.7928H45.7793ZM62.7167 17.2911V19.7337H53.9399V17.2911H62.7167ZM76.5032 15.9249C76.5032 16.6977 76.3169 17.4222 75.9442 18.0984C75.5854 18.7746 75.0127 19.3197 74.2261 19.7337C73.4533 20.1477 72.4735 20.3547 71.2867 20.3547H68.8648V25.9023H65.9668V11.4537H71.2867C72.4045 11.4537 73.3567 11.6469 74.1433 12.0333C74.9299 12.4197 75.5164 12.951 75.9028 13.6272C76.3031 14.3034 76.5032 15.0693 76.5032 15.9249ZM71.1625 18.0156C71.9629 18.0156 72.5563 17.8362 72.9427 17.4774C73.3291 17.1048 73.5223 16.5873 73.5223 15.9249C73.5223 14.5173 72.7357 13.8135 71.1625 13.8135H68.8648V18.0156H71.1625ZM81.4587 16.2147C81.8313 15.6075 82.3143 15.1314 82.9077 14.7864C83.5149 14.4414 84.2049 14.2689 84.9777 14.2689V17.3118H84.2118C83.301 17.3118 82.611 17.5257 82.1418 17.9535C81.6864 18.3813 81.4587 19.1265 81.4587 20.1891V25.9023H78.5607V14.4345H81.4587V16.2147ZM97.5903 19.92C97.5903 20.334 97.5627 20.7066 97.5075 21.0378H89.1239C89.1929 21.8658 89.4827 22.5144 89.9933 22.9836C90.5039 23.4528 91.1318 23.6874 91.877 23.6874C92.9534 23.6874 93.7193 23.2251 94.1747 22.3005H97.3005C96.9693 23.4045 96.3345 24.3153 95.3961 25.0329C94.4576 25.7367 93.3053 26.0886 91.9391 26.0886C90.8351 26.0886 89.8415 25.8471 88.9583 25.3641C88.0889 24.8673 87.4058 24.1704 86.909 23.2734C86.426 22.3764 86.1845 21.3414 86.1845 20.1684C86.1845 18.9816 86.426 17.9397 86.909 17.0427C87.392 16.1457 88.0682 15.4557 88.9376 14.9727C89.807 14.4897 90.8075 14.2482 91.9391 14.2482C93.0293 14.2482 94.0022 14.4828 94.8578 14.952C95.7273 15.4212 96.3966 16.0905 96.8658 16.9599C97.3488 17.8155 97.5903 18.8022 97.5903 19.92ZM94.5887 19.092C94.5749 18.3468 94.3058 17.7534 93.7814 17.3118C93.257 16.8564 92.6153 16.6287 91.8563 16.6287C91.1387 16.6287 90.5315 16.8495 90.0347 17.2911C89.5517 17.7189 89.255 18.3192 89.1446 19.092H94.5887ZM104.094 26.0886C103.156 26.0886 102.314 25.923 101.569 25.5918C100.823 25.2468 100.23 24.7845 99.7884 24.2049C99.3606 23.6253 99.126 22.9836 99.0846 22.2798H102.003C102.058 22.7214 102.272 23.0871 102.645 23.3769C103.031 23.6667 103.507 23.8116 104.073 23.8116C104.625 23.8116 105.053 23.7012 105.357 23.4804C105.674 23.2596 105.833 22.9767 105.833 22.6317C105.833 22.2591 105.64 21.9831 105.253 21.8037C104.881 21.6105 104.28 21.4035 103.452 21.1827C102.597 20.9757 101.893 20.7618 101.341 20.541C100.803 20.3202 100.333 19.9821 99.9333 19.5267C99.5469 19.0713 99.3537 18.4572 99.3537 17.6844C99.3537 17.0496 99.5331 16.47 99.8919 15.9456C100.264 15.4212 100.789 15.0072 101.465 14.7036C102.155 14.4 102.962 14.2482 103.887 14.2482C105.253 14.2482 106.343 14.5932 107.158 15.2832C107.972 15.9594 108.42 16.8771 108.503 18.0363H105.729C105.688 17.5809 105.495 17.2221 105.15 16.9599C104.818 16.6839 104.37 16.5459 103.804 16.5459C103.28 16.5459 102.873 16.6425 102.583 16.8357C102.307 17.0289 102.169 17.298 102.169 17.643C102.169 18.0294 102.362 18.3261 102.748 18.5331C103.135 18.7263 103.735 18.9264 104.549 19.1334C105.377 19.3404 106.06 19.5543 106.599 19.7751C107.137 19.9959 107.599 20.3409 107.986 20.8101C108.386 21.2655 108.593 21.8727 108.607 22.6317C108.607 23.2941 108.42 23.8875 108.048 24.4119C107.689 24.9363 107.164 25.3503 106.474 25.6539C105.798 25.9437 105.005 26.0886 104.094 26.0886ZM121.646 19.92C121.646 20.334 121.618 20.7066 121.563 21.0378H113.18C113.249 21.8658 113.539 22.5144 114.049 22.9836C114.56 23.4528 115.188 23.6874 115.933 23.6874C117.009 23.6874 117.775 23.2251 118.231 22.3005H121.356C121.025 23.4045 120.39 24.3153 119.452 25.0329C118.513 25.7367 117.361 26.0886 115.995 26.0886C114.891 26.0886 113.897 25.8471 113.014 25.3641C112.145 24.8673 111.462 24.1704 110.965 23.2734C110.482 22.3764 110.24 21.3414 110.24 20.1684C110.24 18.9816 110.482 17.9397 110.965 17.0427C111.448 16.1457 112.124 15.4557 112.993 14.9727C113.863 14.4897 114.863 14.2482 115.995 14.2482C117.085 14.2482 118.058 14.4828 118.914 14.952C119.783 15.4212 120.452 16.0905 120.922 16.9599C121.405 17.8155 121.646 18.8022 121.646 19.92ZM118.645 19.092C118.631 18.3468 118.362 17.7534 117.837 17.3118C117.313 16.8564 116.671 16.6287 115.912 16.6287C115.195 16.6287 114.587 16.8495 114.091 17.2911C113.608 17.7189 113.311 18.3192 113.2 19.092H118.645ZM130.116 14.2689C131.482 14.2689 132.587 14.7036 133.428 15.573C134.27 16.4286 134.691 17.6292 134.691 19.1748V25.9023H131.793V19.5681C131.793 18.6573 131.565 17.9604 131.11 17.4774C130.654 16.9806 130.033 16.7322 129.247 16.7322C128.446 16.7322 127.812 16.9806 127.342 17.4774C126.887 17.9604 126.659 18.6573 126.659 19.5681V25.9023H123.761V14.4345H126.659V15.8628C127.046 15.366 127.536 14.9796 128.129 14.7036C128.736 14.4138 129.399 14.2689 130.116 14.2689ZM141.835 26.0886C140.897 26.0886 140.055 25.923 139.31 25.5918C138.565 25.2468 137.971 24.7845 137.53 24.2049C137.102 23.6253 136.867 22.9836 136.826 22.2798H139.745C139.8 22.7214 140.014 23.0871 140.386 23.3769C140.773 23.6667 141.249 23.8116 141.815 23.8116C142.367 23.8116 142.794 23.7012 143.098 23.4804C143.415 23.2596 143.574 22.9767 143.574 22.6317C143.574 22.2591 143.381 21.9831 142.995 21.8037C142.622 21.6105 142.022 21.4035 141.194 21.1827C140.338 20.9757 139.634 20.7618 139.082 20.541C138.544 20.3202 138.075 19.9821 137.675 19.5267C137.288 19.0713 137.095 18.4572 137.095 17.6844C137.095 17.0496 137.274 16.47 137.633 15.9456C138.006 15.4212 138.53 15.0072 139.206 14.7036C139.896 14.4 140.704 14.2482 141.628 14.2482C142.995 14.2482 144.085 14.5932 144.899 15.2832C145.713 15.9594 146.162 16.8771 146.244 18.0363H143.471C143.429 17.5809 143.236 17.2221 142.891 16.9599C142.56 16.6839 142.111 16.5459 141.546 16.5459C141.021 16.5459 140.614 16.6425 140.324 16.8357C140.048 17.0289 139.91 17.298 139.91 17.643C139.91 18.0294 140.103 18.3261 140.49 18.5331C140.876 18.7263 141.477 18.9264 142.291 19.1334C143.119 19.3404 143.802 19.5543 144.34 19.7751C144.878 19.9959 145.341 20.3409 145.727 20.8101C146.127 21.2655 146.334 21.8727 146.348 22.6317C146.348 23.2941 146.162 23.8875 145.789 24.4119C145.43 24.9363 144.906 25.3503 144.216 25.6539C143.54 25.9437 142.746 26.0886 141.835 26.0886ZM150.197 13.0683C149.686 13.0683 149.258 12.9096 148.913 12.5922C148.582 12.261 148.416 11.8539 148.416 11.3709C148.416 10.8879 148.582 10.4877 148.913 10.1703C149.258 9.83905 149.686 9.67345 150.197 9.67345C150.707 9.67345 151.128 9.83905 151.459 10.1703C151.804 10.4877 151.977 10.8879 151.977 11.3709C151.977 11.8539 151.804 12.261 151.459 12.5922C151.128 12.9096 150.707 13.0683 150.197 13.0683ZM151.625 14.4345V25.9023H148.727V14.4345H151.625Z" fill="url(#paint0_linear_397_62)"/>
<path d="M46.3467 36.5659C46.6098 36.615 46.8261 36.7465 46.9955 36.9606C47.165 37.1747 47.2497 37.4199 47.2497 37.6964C47.2497 37.9462 47.1873 38.1669 47.0624 38.3587C46.942 38.546 46.7658 38.6931 46.534 38.8002C46.3021 38.9072 46.0278 38.9607 45.7112 38.9607H43.6977V34.2916H45.6242C45.9408 34.2916 46.2129 34.3429 46.4403 34.4454C46.6722 34.548 46.8461 34.6907 46.9621 34.8735C47.0825 35.0564 47.1427 35.2638 47.1427 35.4957C47.1427 35.7677 47.0691 35.9951 46.9219 36.178C46.7792 36.3608 46.5875 36.4901 46.3467 36.5659ZM44.6342 36.2181H45.4904C45.7134 36.2181 45.8851 36.169 46.0055 36.0709C46.1259 35.9684 46.1861 35.8234 46.1861 35.6361C46.1861 35.4488 46.1259 35.3039 46.0055 35.2013C45.8851 35.0988 45.7134 35.0475 45.4904 35.0475H44.6342V36.2181ZM45.5774 38.1981C45.8048 38.1981 45.981 38.1446 46.1058 38.0376C46.2352 37.9305 46.2998 37.7789 46.2998 37.5827C46.2998 37.382 46.2329 37.2259 46.0992 37.1145C45.9654 36.9985 45.7848 36.9405 45.5573 36.9405H44.6342V38.1981H45.5774ZM51.5414 35.2548L49.247 40.7133H48.2503L49.053 38.867L47.568 35.2548H48.6182L49.5748 37.8436L50.5447 35.2548H51.5414ZM53.4127 36.6194C53.4127 36.1601 53.5153 35.7498 53.7204 35.3886C53.93 35.0229 54.2132 34.7398 54.57 34.5391C54.9312 34.3339 55.3348 34.2314 55.7807 34.2314C56.3025 34.2314 56.7596 34.3652 57.152 34.6327C57.5445 34.9003 57.8187 35.2704 57.9748 35.7432H56.8978C56.7908 35.5202 56.6392 35.3529 56.443 35.2415C56.2512 35.13 56.0282 35.0742 55.774 35.0742C55.502 35.0742 55.259 35.1389 55.0449 35.2682C54.8353 35.3931 54.6703 35.5715 54.5499 35.8034C54.4339 36.0353 54.376 36.3073 54.376 36.6194C54.376 36.9272 54.4339 37.1992 54.5499 37.4355C54.6703 37.6674 54.8353 37.848 55.0449 37.9774C55.259 38.1022 55.502 38.1647 55.774 38.1647C56.0282 38.1647 56.2512 38.1089 56.443 37.9974C56.6392 37.8815 56.7908 37.712 56.8978 37.4891H57.9748C57.8187 37.9662 57.5445 38.3386 57.152 38.6062C56.764 38.8693 56.3069 39.0008 55.7807 39.0008C55.3348 39.0008 54.9312 38.9005 54.57 38.6998C54.2132 38.4947 53.93 38.2115 53.7204 37.8503C53.5153 37.4891 53.4127 37.0788 53.4127 36.6194ZM59.2496 34.8133C59.0846 34.8133 58.9464 34.7621 58.8349 34.6595C58.7279 34.5525 58.6744 34.4209 58.6744 34.2648C58.6744 34.1087 58.7279 33.9794 58.8349 33.8768C58.9464 33.7698 59.0846 33.7163 59.2496 33.7163C59.4146 33.7163 59.5506 33.7698 59.6577 33.8768C59.7692 33.9794 59.8249 34.1087 59.8249 34.2648C59.8249 34.4209 59.7692 34.5525 59.6577 34.6595C59.5506 34.7621 59.4146 34.8133 59.2496 34.8133ZM59.7112 35.2548V38.9607H58.7747V35.2548H59.7112ZM64.0814 37.0275C64.0814 37.1613 64.0725 37.2817 64.0547 37.3887H61.3455C61.3678 37.6563 61.4615 37.8659 61.6265 38.0175C61.7915 38.1691 61.9944 38.2449 62.2352 38.2449C62.583 38.2449 62.8305 38.0955 62.9777 37.7968H63.9878C63.8807 38.1535 63.6756 38.4478 63.3724 38.6797C63.0691 38.9072 62.6967 39.0209 62.2553 39.0209C61.8985 39.0209 61.5774 38.9429 61.292 38.7868C61.011 38.6262 60.7903 38.401 60.6298 38.1112C60.4737 37.8213 60.3956 37.4868 60.3956 37.1078C60.3956 36.7242 60.4737 36.3876 60.6298 36.0977C60.7858 35.8078 61.0044 35.5848 61.2853 35.4288C61.5663 35.2727 61.8896 35.1946 62.2553 35.1946C62.6076 35.1946 62.922 35.2704 63.1984 35.4221C63.4794 35.5737 63.6957 35.79 63.8473 36.0709C64.0034 36.3474 64.0814 36.6663 64.0814 37.0275ZM63.1115 36.7599C63.107 36.5191 63.0201 36.3274 62.8506 36.1846C62.6811 36.0375 62.4738 35.9639 62.2285 35.9639C61.9966 35.9639 61.8004 36.0353 61.6398 36.178C61.4838 36.3162 61.3879 36.5102 61.3522 36.7599H63.1115ZM65.7015 34.0106V38.9607H64.765V34.0106H65.7015ZM70.1721 35.2548L67.8776 40.7133H66.8809L67.6836 38.867L66.1986 35.2548H67.2488L68.2054 37.8436L69.1754 35.2548H70.1721ZM72.7305 35.2013C73.172 35.2013 73.5287 35.3418 73.8008 35.6227C74.0728 35.8992 74.2088 36.2872 74.2088 36.7867V38.9607H73.2723V36.9138C73.2723 36.6194 73.1987 36.3942 73.0516 36.2382C72.9044 36.0776 72.7037 35.9973 72.4495 35.9973C72.1909 35.9973 71.9858 36.0776 71.8341 36.2382C71.687 36.3942 71.6134 36.6194 71.6134 36.9138V38.9607H70.6769V35.2548H71.6134V35.7164C71.7382 35.5559 71.8966 35.431 72.0883 35.3418C72.2845 35.2481 72.4986 35.2013 72.7305 35.2013ZM77.153 35.2013C77.5945 35.2013 77.9512 35.3418 78.2233 35.6227C78.4953 35.8992 78.6313 36.2872 78.6313 36.7867V38.9607H77.6948V36.9138C77.6948 36.6194 77.6212 36.3942 77.4741 36.2382C77.3269 36.0776 77.1262 35.9973 76.872 35.9973C76.6134 35.9973 76.4082 36.0776 76.2566 36.2382C76.1095 36.3942 76.0359 36.6194 76.0359 36.9138V38.9607H75.0994V35.2548H76.0359V35.7164C76.1607 35.5559 76.3191 35.431 76.5108 35.3418C76.707 35.2481 76.9211 35.2013 77.153 35.2013Z" fill="#13002E"/>
<path d="M2 32.3548V28.9821C2 27.193 2.71069 25.4773 3.97571 24.2123C5.24074 22.9472 6.95649 22.2365 8.74551 22.2365H15.491C17.28 22.2365 18.9958 22.9472 20.2608 24.2123C21.5259 25.4773 22.2365 27.193 22.2365 28.9821V32.3548M23.9229 2.21924C25.3739 2.59075 26.66 3.43461 27.5784 4.61779C28.4968 5.80097 28.9953 7.25616 28.9953 8.75395C28.9953 10.2517 28.4968 11.7069 27.5784 12.8901C26.66 14.0733 25.3739 14.9172 23.9229 15.2887M32.3548 32.3549V28.9821C32.3463 27.4933 31.8454 26.0491 30.9303 24.8748C30.0152 23.7004 28.7372 22.8617 27.2957 22.4895M5.37276 8.74551C5.37276 10.5345 6.08344 12.2503 7.34847 13.5153C8.6135 14.7803 10.3292 15.491 12.1183 15.491C13.9073 15.491 15.623 14.7803 16.8881 13.5153C18.1531 12.2503 18.8638 10.5345 18.8638 8.74551C18.8638 6.95649 18.1531 5.24074 16.8881 3.97571C15.623 2.71069 13.9073 2 12.1183 2C10.3292 2 8.6135 2.71069 7.34847 3.97571C6.08344 5.24074 5.37276 6.95649 5.37276 8.74551Z" stroke="url(#paint1_linear_397_62)" stroke-width="3.37276" stroke-linecap="round" stroke-linejoin="round"/>
<defs>
<linearGradient id="paint0_linear_397_62" x1="91" y1="14.25" x2="99.5" y2="25.75" gradientUnits="userSpaceOnUse">
<stop stop-color="#DA8CFF"/>
<stop offset="1" stop-color="#9A55FF"/>
</linearGradient>
<linearGradient id="paint1_linear_397_62" x1="17.1774" y1="2" x2="17.1774" y2="32.3549" gradientUnits="userSpaceOnUse">
<stop stop-color="#DA8CFF"/>
<stop offset="1" stop-color="#9A55FF"/>
</linearGradient>
</defs>
</svg>
