<svg width="122" height="122" viewBox="0 0 122 122" fill="none" xmlns="http://www.w3.org/2000/svg">
<path d="M6.91871 115.937V103.833C6.91871 97.4127 9.46922 91.2552 14.0092 86.7153C18.5491 82.1754 24.7066 79.6249 31.127 79.6249H55.3353C61.7557 79.6249 67.9132 82.1754 72.4531 86.7153C76.9931 91.2552 79.5436 97.4127 79.5436 103.833V115.937M85.5956 7.7868C90.8029 9.12008 95.4184 12.1485 98.7143 16.3947C102.01 20.6409 103.799 25.8633 103.799 31.2386C103.799 36.6138 102.01 41.8362 98.7143 46.0824C95.4184 50.3286 90.8029 53.3571 85.5956 54.6904M115.856 115.937V103.833C115.825 98.4903 114.028 93.3075 110.744 89.0929C107.459 84.8782 102.873 81.8685 97.6998 80.5328M19.0229 31.2083C19.0229 37.6287 21.5734 43.7862 26.1133 48.3261C30.6532 52.8661 36.8107 55.4166 43.2311 55.4166C49.6516 55.4166 55.8091 52.8661 60.349 48.3261C64.8889 43.7862 67.4394 37.6287 67.4394 31.2083C67.4394 24.7878 64.8889 18.6304 60.349 14.0904C55.8091 9.55051 49.6516 7 43.2311 7C36.8107 7 30.6532 9.55051 26.1133 14.0904C21.5734 18.6304 19.0229 24.7878 19.0229 31.2083Z" stroke="url(#paint0_linear_397_65)" stroke-width="12.1041" stroke-linecap="round" stroke-linejoin="round"/>
<defs>
<linearGradient id="paint0_linear_397_65" x1="61.3874" y1="7" x2="61.3874" y2="115.937" gradientUnits="userSpaceOnUse">
<stop stop-color="#DA8CFF"/>
<stop offset="1" stop-color="#9A55FF"/>
</linearGradient>
</defs>
</svg>
